<?xml version="1.0" standalone="no"?>
<!DOCTYPE svg PUBLIC "-//W3C//DTD SVG 20010904//EN"
 "http://www.w3.org/TR/2001/REC-SVG-20010904/DTD/svg10.dtd">
<svg version="1.0" xmlns="http://www.w3.org/2000/svg"
 width="50.000000pt" height="50.000000pt" viewBox="0 0 50.000000 50.000000"
 preserveAspectRatio="xMidYMid meet">

<g transform="translate(0.000000,50.000000) scale(0.100000,-0.100000)"
fill="#000000" stroke="none">
<path d="M37 452 c-22 -24 -21 -45 1 -65 36 -33 102 -10 102 35 0 42 -73 63
-103 30z"/>
<path d="M20 195 l0 -155 60 0 60 0 0 155 0 155 -60 0 -60 0 0 -155z"/>
<path d="M170 195 l0 -155 55 0 55 0 0 93 c0 98 7 117 45 117 38 0 45 -19 45
-117 l0 -93 55 0 55 0 0 105 c0 69 -5 118 -14 140 -23 54 -97 81 -149 54 -16
-9 -22 -9 -25 0 -2 6 -27 11 -63 11 l-59 0 0 -155z"/>
</g>
</svg>
