<?xml version="1.0" standalone="no"?>
<!DOCTYPE svg PUBLIC "-//W3C//DTD SVG 20010904//EN"
 "http://www.w3.org/TR/2001/REC-SVG-20010904/DTD/svg10.dtd">
<svg version="1.0" xmlns="http://www.w3.org/2000/svg"
 width="225.000000pt" height="225.000000pt" viewBox="0 0 225.000000 225.000000"
 preserveAspectRatio="xMidYMid meet">

<g transform="translate(0.000000,225.000000) scale(0.100000,-0.100000)"
fill="#000000" stroke="none">
<path d="M1900 1905 c-107 -34 -180 -138 -180 -255 0 -78 22 -132 75 -185 53
-53 107 -75 185 -75 209 0 333 216 230 397 -60 105 -193 156 -310 118z"/>
<path d="M20 1858 c10 -24 156 -376 324 -782 169 -407 309 -742 311 -745 13
-12 40 41 140 283 105 254 107 260 91 285 -59 92 -166 331 -362 808 l-79 193
-222 0 -222 0 19 -42z"/>
<path d="M834 1891 c3 -5 150 -357 326 -782 176 -425 322 -775 325 -778 3 -2
11 2 19 10 12 13 226 518 226 535 0 4 -6 15 -14 23 -37 41 -179 360 -377 843
l-64 158 -223 0 c-128 0 -221 -4 -218 -9z"/>
</g>
</svg>
